<svg viewBox="0 0 453.5 453.5" xmlns="http://www.w3.org/2000/svg"><rect fill="#1c1c1c" height="453.5" rx="143.2" width="453.5"/><g fill="#efece8"><path d="m182.7 67.3h30v30h-30z"/><path d="m67.7 182.3h30v30h-30z"/><path d="m125.2 91h30v30h-30z"/><path d="m159 124.8h30v30h-30z"/><path d="m91.5 124.8h30v30h-30z"/><path d="m125.2 158.5h30v30h-30z"/><path d="m356.4 183.5h30v30h-30z"/><path d="m241.4 68.5h30v30h-30z"/><path d="m332.7 126h30v30h-30z"/><path d="m298.9 159.8h30v30h-30z"/><path d="m298.9 92.3h30v30h-30z"/><path d="m265.2 126h30v30h-30z"/><path d="m66.5 241h30v30h-30z"/><path d="m181.4 356h30v30h-30z"/><path d="m90.2 298.5h30v30h-30z"/><path d="m124 264.8h30v30h-30z"/><path d="m124 332.3h30v30h-30z"/><path d="m157.7 298.5h30v30h-30z"/><path d="m241.4 356h30v30h-30z"/><path d="m356.4 241h30v30h-30z"/><path d="m265.2 298.5v30h30v-30z"/><path d="m298.9 332.3v30h30v-30z"/><path d="m298.9 264.8v30h30v-30z"/><path d="m332.7 298.5v30h30v-30z"/></g></svg>